# xmcd CD database file
#
# Track frame offsets:
#	150
#	27815
#	42030
#	63601
#	81875
#	100194
#	116050
#	141070
#	157426
#	175258
#	192734
#	213331
#	227337
#	260434
#	273953
#	290553
#	305206
#
# Disc length: 4290 seconds
#
# Revision: 0
# Processed by: cddbd v1.5.2PL0 Copyright (c) Steve Scherf et al.
# Submitted via: CDex 1.70beta2
#
DISCID=fe10c011
DTITLE=Hermann Posch, Stephan Rausch, Peter Müller - Dove House Blues
DYEAR=2010
DGENRE=Blues
TTITLE0=Crawling King Snake
TTITLE1=I Love You Baby
TTITLE2=Driftin' Blues
TTITLE3=Deep Ellum Blues
TTITLE4=Hey Little Girl
TTITLE5=Hard to Stumble
TTITLE6=Feel Like Going Home
TTITLE7=Diamond Ring
TTITLE8=Goin' Away
TTITLE9=If You Love Me Like You Say
TTITLE10=Blues In The City
TTITLE11=I Know You Rider
TTITLE12=Dead End Street
TTITLE13=Pretty Girl
TTITLE14=I Got to Find My Baby
TTITLE15=Crazy About The Automobile
TTITLE16=Stranger
EXTD=YEAR: 2010
EXTT0=
EXTT1=
EXTT2=
EXTT3=
EXTT4=
EXTT5=
EXTT6=
EXTT7=
EXTT8=
EXTT9=
EXTT10=
EXTT11=
EXTT12=
EXTT13=
EXTT14=
EXTT15=
EXTT16=
PLAYORDER=
